<?xml version="1.0" encoding="utf-8"?>
<svg xmlns="http://www.w3.org/2000/svg" height="64" width="64" viewBox="0 0 64 64">
  <g>
    <path stroke="#CB456E" fill="#CB456E" id="path1" transform="rotate(0,32,32) translate(14.9098451804813,4) scale(1.75005424190794,1.75005424190794)" d="M9.7524976,2.8294517C7.9872488,2.8294519 6.2095011,3.5054406 4.8575042,4.8574174 2.1535105,7.4613822 2.1535105,11.868314 4.8575042,14.572284 7.5614985,17.276238 11.868503,17.276238 14.572498,14.572284 17.276506,11.968319 17.276506,7.5613869 14.572498,4.8574174 13.270496,3.5054406 11.517746,2.8294519 9.7524976,2.8294517z M9.7654999,0C12.269501,0 14.773501,0.95148566 16.6765,2.8544572 20.4825,6.6603993 20.4825,12.869305 16.6765,16.675248 15.073504,18.178216 13.170505,19.079203 11.267506,19.38021L11.267506,22.685153 14.873493,22.685153 14.873493,25.789109 11.267506,25.789109 11.267506,31.999009 8.0625056,31.999009 8.0625056,25.789109 4.7574981,25.789109 4.7574981,22.685153 8.0625056,22.685153 8.0625056,19.38021C6.1595062,19.079203 4.3564976,18.178216 2.8544987,16.675248 -0.95149958,12.869305 -0.95149958,6.6603993 2.8544987,2.8544572 4.7574981,0.95148566 7.2614993,0 9.7654999,0z" />
  </g>
</svg>
