<?xml version="1.0" encoding="utf-8"?>
<svg xmlns="http://www.w3.org/2000/svg" height="64" width="64" viewBox="0 0 64 64">
  <g>
    <path stroke="#576AC5" fill="#576AC5" id="path1" transform="rotate(0,32,32) translate(4,4.26249933242798) scale(1.75,1.75)" d="M10.800003,13.400002C6.6000061,13.400002 3.2000046,16.799997 3.2000046,21.000012 3.2000046,25.199997 6.6000061,28.600023 10.800003,28.600023 15,28.600023 18.400002,25.199997 18.400002,21.000012 18.400002,16.799997 15,13.400002 10.800003,13.400002z M28,0L32,0 32,3.8999957 32,12.000007 28.100006,10.9 28.100006,5.8999974 19.5,14.500009C20.800003,16.299997 21.600006,18.500012 21.600006,20.900006 21.600006,26.800003 16.800003,31.700001 10.800003,31.700001 4.9000015,31.700001 0,26.900009 0,20.900006 0,15.000009 4.8000031,10.100012 10.800003,10.100012 13.300003,10.100012 15.600006,11.000007 17.5,12.500007L26,4.0000023 21,4.0000023 19.900002,0.1000061 28,0.1000061z" />
  </g>
</svg>
